<svg width="380" height="140" viewBox="0 0 380 140" fill="none" xmlns="http://www.w3.org/2000/svg">
<rect width="380" height="140" fill="#4C22B2"/>
<path d="M82 55H94V73H100V55H106V73H112V55H124V85H106V79H100V85H82V55ZM141.988 55H153.988V85H129.988V61H141.988V55ZM135.988 67V79H141.988V67H135.988ZM159.988 61H183.988V85H159.988V61ZM171.988 67V79H177.988V67H171.988ZM189.988 61H213.988V85H207.988V67H201.988V85H189.988V61ZM219.988 61H243.988V85H219.988V61ZM225.988 67V79H231.988V67H225.988ZM249.988 55H261.988V61H273.988V67H261.988V79H267.988V73H273.988V85H249.988V55ZM279.988 61H303.988V73H297.988V79H303.988V85H279.988V61ZM285.988 67V79H291.988V67H285.988Z" fill="white"/>
</svg>
